<svg xmlns="http://www.w3.org/2000/svg" viewBox="0 0 1024 768" role="img" aria-labelledby="c02t c02d">
  <title id="c02t">Планка на локтях</title>
  <desc id="c02d">Схема упражнения: удержание планки на предплечьях, предплечья вперёд, тело прямой линией от плеч до пяток.</desc>
  <defs><path id="TK" d="M 0,-10 C 20,-10 25,2 25,38 C 25,72 17,86 17,108 C 17,138 23,150 23,168 C 23,182 12,186 0,186 C -12,186 -23,182 -23,168 C -23,150 -17,138 -17,108 C -17,86 -25,72 -25,38 C -25,2 -20,-10 0,-10 Z"/><path id="FT" d="M 8,-6 C 34,-6 50,0 57,9 C 63,13 61,21 51,21 L -8,21 C -18,21 -18,-3 -9,-5 Z"/></defs>

  <g id="mat"><rect x="120" y="560" width="780" height="22" rx="11" fill="#D1FAE5" stroke="#1F2937" stroke-width="3" opacity="0.7"/></g>

  <g transform="translate(-106 0)">
    <g id="body-end"></g>

    <g id="body-start" stroke-linecap="round" stroke-linejoin="round">
      <use href="#TK" transform="translate(424 440) rotate(-82.8)" fill="#E5E7EB" stroke="#1F2937" stroke-width="6"/>
      <path d="M 424,440 L 420,556 L 330,556 M 597,462 L 746,481 L 897,500 M 424,440 L 398,437" fill="none" stroke="#1F2937" stroke-width="40"/>
      <use href="#FT" transform="translate(897 500) rotate(74)" fill="#E5E7EB" stroke="#1F2937" stroke-width="6"/>
      <path d="M 424,440 L 420,556 L 330,556 M 597,462 L 746,481 L 897,500 M 424,440 L 398,437" fill="none" stroke="#E5E7EB" stroke-width="28"/>
      <ellipse cx="360" cy="432" rx="29" ry="41" fill="#E5E7EB" stroke="#1F2937" stroke-width="6" transform="rotate(-82.7 360 432)"/>
    </g>

    <g id="movement-arrows"></g>

    <g id="safety-cues" fill="none" stroke="#10B981" stroke-width="4" stroke-linecap="round" stroke-dasharray="2 14"><line x1="360" y1="434" x2="915" y2="524"/></g>
  </g>
</svg>
