<svg xmlns="http://www.w3.org/2000/svg" viewBox="0 0 1024 768" role="img" aria-labelledby="c03t c03d">
  <title id="c03t">Flutter kicks</title>
  <desc id="c03d">Схема упражнения: лёжа на спине, ноги приподняты и попеременно двигаются вверх-вниз, поясница прижата к коврику.</desc>
  <defs><marker id="ah" markerUnits="userSpaceOnUse" markerWidth="26" markerHeight="26" refX="18" refY="13" orient="auto-start-reverse"><path d="M5,3 L21,13 L5,23" fill="none" stroke="#2563EB" stroke-width="5" stroke-linecap="round" stroke-linejoin="round"/></marker><path id="TK" d="M 0,-10 C 20,-10 25,2 25,38 C 25,72 17,86 17,108 C 17,138 23,150 23,168 C 23,182 12,186 0,186 C -12,186 -23,182 -23,168 C -23,150 -17,138 -17,108 C -17,86 -25,72 -25,38 C -25,2 -20,-10 0,-10 Z"/><path id="FT" d="M 8,-6 C 34,-6 50,0 57,9 C 63,13 61,21 51,21 L -8,21 C -18,21 -18,-3 -9,-5 Z"/></defs>

  <g id="mat"><rect x="120" y="520" width="780" height="30" rx="15" fill="#D1FAE5" stroke="#1F2937" stroke-width="3" opacity="0.7"/></g>

  <g id="body-end" opacity="0.4" stroke-linecap="round" stroke-linejoin="round">
      <path d="M 445,506 L 575,420 L 700,345 M 445,506 L 545,400 L 628,272" fill="none" stroke="#9CA3AF" stroke-width="28"/>
      <use href="#FT" transform="translate(700 345) rotate(-31)" fill="#9CA3AF"/>
      <use href="#FT" transform="translate(628 272) rotate(-57)" fill="#9CA3AF"/>
    </g>

    <g id="body-start" stroke-linecap="round" stroke-linejoin="round">
      <use href="#TK" transform="translate(270 500) rotate(-88.0)" fill="#E5E7EB" stroke="#1F2937" stroke-width="6"/>
      <path d="M 270,500 L 378,515 L 458,524 M 270,500 L 244,499" fill="none" stroke="#1F2937" stroke-width="40"/>
      <path d="M 270,500 L 378,515 L 458,524 M 270,500 L 244,499" fill="none" stroke="#E5E7EB" stroke-width="28"/>
      <path d="M 445,506 L 548,395 L 632,268 M 445,506 L 565,415 L 690,330" fill="none" stroke="#1F2937" stroke-width="40"/>
      <use href="#FT" transform="translate(632 268) rotate(-56.5)" fill="#E5E7EB" stroke="#1F2937" stroke-width="6"/>
      <use href="#FT" transform="translate(690 330) rotate(-34.2)" fill="#E5E7EB" stroke="#1F2937" stroke-width="6"/>
      <path d="M 445,506 L 548,395 L 632,268 M 445,506 L 565,415 L 690,330" fill="none" stroke="#E5E7EB" stroke-width="28"/>
      <ellipse cx="206" cy="498" rx="29" ry="41" fill="#E5E7EB" stroke="#1F2937" stroke-width="6" transform="rotate(-88 206 498)"/>
    </g>

    <g id="movement-arrows"><path d="M 590 198 L 590 274" fill="none" stroke="#2563EB" stroke-width="6" stroke-linecap="round" stroke-linejoin="round" marker-start="url(#ah)" marker-end="url(#ah)"/><path d="M 792 282 L 792 358" fill="none" stroke="#2563EB" stroke-width="6" stroke-linecap="round" stroke-linejoin="round" marker-start="url(#ah)" marker-end="url(#ah)"/></g>

    <g id="safety-cues" fill="none" stroke="#10B981" stroke-width="4" stroke-linecap="round" stroke-dasharray="2 14"><line x1="360" y1="520" x2="445" y2="522"/></g>
</svg>
