<svg xmlns="http://www.w3.org/2000/svg" viewBox="0 0 1024 768" role="img" aria-labelledby="c04t c04d">
  <title id="c04t">Dead bug</title>
  <desc id="c04d">Схема упражнения: лёжа на спине, противоположные рука и нога вытягиваются, поясница прижата к коврику.</desc>
  <defs><marker id="ah" markerUnits="userSpaceOnUse" markerWidth="26" markerHeight="26" refX="18" refY="13" orient="auto-start-reverse"><path d="M5,3 L21,13 L5,23" fill="none" stroke="#2563EB" stroke-width="5" stroke-linecap="round" stroke-linejoin="round"/></marker><path id="TK" d="M 0,-10 C 20,-10 25,2 25,38 C 25,72 17,86 17,108 C 17,138 23,150 23,168 C 23,182 12,186 0,186 C -12,186 -23,182 -23,168 C -23,150 -17,138 -17,108 C -17,86 -25,72 -25,38 C -25,2 -20,-10 0,-10 Z"/><path id="FT" d="M 8,-6 C 34,-6 50,0 57,9 C 63,13 61,21 51,21 L -8,21 C -18,21 -18,-3 -9,-5 Z"/></defs>

  <g id="mat"><rect x="120" y="520" width="780" height="30" rx="15" fill="#D1FAE5" stroke="#1F2937" stroke-width="3" opacity="0.7"/></g>

  <g transform="translate(34 0)">
    <g id="body-end"></g>

    <g id="body-start" stroke-linecap="round" stroke-linejoin="round">
      <use href="#TK" transform="translate(316 500) rotate(-88.0)" fill="#E5E7EB" stroke="#1F2937" stroke-width="6"/>
      <path d="M 316,500 L 208,468 L 120,452 M 316,500 L 326,384 L 334,296 M 491,506 L 636,468 L 784,452 M 491,506 L 534,362 L 684,384 M 316,500 L 290,499" fill="none" stroke="#1F2937" stroke-width="40"/>
      <use href="#FT" transform="translate(784 452) rotate(-6.2)" fill="#E5E7EB" stroke="#1F2937" stroke-width="6"/>
      <use href="#FT" transform="translate(684 384) rotate(8.3)" fill="#E5E7EB" stroke="#1F2937" stroke-width="6"/>
      <path d="M 316,500 L 208,468 L 120,452 M 316,500 L 326,384 L 334,296 M 491,506 L 636,468 L 784,452 M 491,506 L 534,362 L 684,384 M 316,500 L 290,499" fill="none" stroke="#E5E7EB" stroke-width="28"/>
      <ellipse cx="252" cy="498" rx="29" ry="41" fill="#E5E7EB" stroke="#1F2937" stroke-width="6" transform="rotate(-88 252 498)"/>
    </g>

    <g id="movement-arrows"><path d="M 150 442 L 96 420" fill="none" stroke="#2563EB" stroke-width="6" stroke-linecap="round" stroke-linejoin="round" marker-end="url(#ah)"/><path d="M 840 452 L 892 478" fill="none" stroke="#2563EB" stroke-width="6" stroke-linecap="round" stroke-linejoin="round" marker-end="url(#ah)"/></g>

    <g id="safety-cues" fill="none" stroke="#10B981" stroke-width="4" stroke-linecap="round" stroke-dasharray="2 14"><line x1="425" y1="514" x2="491" y2="516"/></g>
  </g>
</svg>
