<svg xmlns="http://www.w3.org/2000/svg" viewBox="0 0 1024 768" role="img" aria-labelledby="l01t l01d">
  <title id="l01t">Мини-присед до 45°</title>
  <desc id="l01d">Схема упражнения: неглубокий присед, таз назад-вниз, спина прямая, колени по линии носков.</desc>
  <defs><marker id="ah" markerUnits="userSpaceOnUse" markerWidth="26" markerHeight="26" refX="18" refY="13" orient="auto-start-reverse"><path d="M5,3 L21,13 L5,23" fill="none" stroke="#2563EB" stroke-width="5" stroke-linecap="round" stroke-linejoin="round"/></marker><path id="TK" d="M 0,-10 C 20,-10 25,2 25,38 C 25,72 17,86 17,108 C 17,138 23,150 23,168 C 23,182 12,186 0,186 C -12,186 -23,182 -23,168 C -23,150 -17,138 -17,108 C -17,86 -25,72 -25,38 C -25,2 -20,-10 0,-10 Z"/><path id="FT" d="M 8,-6 C 34,-6 50,0 57,9 C 63,13 61,21 51,21 L -8,21 C -18,21 -18,-3 -9,-5 Z"/></defs>

  <g id="mat"><line x1="180" y1="716" x2="820" y2="716" stroke="#1F2937" stroke-width="4" stroke-linecap="round" opacity="0.45"/></g>

  <g id="body-end" opacity="0.4" stroke-linecap="round" stroke-linejoin="round">
      <use href="#TK" transform="translate(470 215) rotate(0.0)" fill="#9CA3AF"/>
      <path d="M 470,215 L 478,329 L 486,417 M 470,390 L 470,541 L 468,692 M 470,215 L 470,189" fill="none" stroke="#9CA3AF" stroke-width="28"/>
      <use href="#FT" transform="translate(468 692) rotate(0)" fill="#9CA3AF"/>
      <ellipse cx="470" cy="151" rx="29" ry="41" fill="#9CA3AF" transform="rotate(0 470 151)"/>
    </g>

    <g id="body-start" stroke-linecap="round" stroke-linejoin="round">
      <use href="#TK" transform="translate(470 255) rotate(18.4)" fill="#E5E7EB" stroke="#1F2937" stroke-width="6"/>
      <path d="M 470,255 L 503,365 L 592,356 M 415,420 L 502,545 L 468,692 M 470,255 L 478,230" fill="none" stroke="#1F2937" stroke-width="40"/>
      <use href="#FT" transform="translate(468 692) rotate(0)" fill="#E5E7EB" stroke="#1F2937" stroke-width="6"/>
      <path d="M 470,255 L 503,365 L 592,356 M 415,420 L 502,545 L 468,692 M 470,255 L 478,230" fill="none" stroke="#E5E7EB" stroke-width="28"/>
      <ellipse cx="490" cy="194" rx="29" ry="41" fill="#E5E7EB" stroke="#1F2937" stroke-width="6" transform="rotate(18.4 490 194)"/>
    </g>

    <g id="movement-arrows"><path d="M 405 418 C 360 438, 345 470, 342 505" fill="none" stroke="#2563EB" stroke-width="6" stroke-linecap="round" stroke-linejoin="round" marker-end="url(#ah)"/></g>

    <g id="safety-cues" fill="none" stroke="#10B981" stroke-width="4" stroke-linecap="round" stroke-dasharray="2 14"><line x1="350" y1="425" x2="515" y2="425"/><line x1="531" y1="716" x2="531" y2="520"/></g>
</svg>
