<svg xmlns="http://www.w3.org/2000/svg" viewBox="0 0 1024 768" role="img" aria-labelledby="m01t m01d">
  <title id="m01t">Отжимания классические</title>
  <desc id="m01d">Схема упражнения: верхняя и нижняя позиция отжимания со стрелкой движения и линией прямого корпуса.</desc>
  <defs><marker id="ah" markerUnits="userSpaceOnUse" markerWidth="26" markerHeight="26" refX="18" refY="13" orient="auto-start-reverse"><path d="M5,3 L21,13 L5,23" fill="none" stroke="#2563EB" stroke-width="5" stroke-linecap="round" stroke-linejoin="round"/></marker><path id="TK" d="M 0,-10 C 20,-10 25,2 25,38 C 25,72 17,86 17,108 C 17,138 23,150 23,168 C 23,182 12,186 0,186 C -12,186 -23,182 -23,168 C -23,150 -17,138 -17,108 C -17,86 -25,72 -25,38 C -25,2 -20,-10 0,-10 Z"/><path id="FT" d="M 8,-6 C 34,-6 50,0 57,9 C 63,13 61,21 51,21 L -8,21 C -18,21 -18,-3 -9,-5 Z"/></defs>

  <g id="mat"><rect x="120" y="560" width="780" height="22" rx="11" fill="#D1FAE5" stroke="#1F2937" stroke-width="3" opacity="0.7"/></g>

  <g transform="translate(-110 0)">
    <g id="body-end" opacity="0.4" stroke-linecap="round" stroke-linejoin="round">
      <use href="#TK" transform="translate(372 460) rotate(-84.4)" fill="#9CA3AF"/>
      <path d="M 372,460 L 460,536 L 372,556 M 546,477 L 697,492 L 826,505 M 372,460 L 346,457" fill="none" stroke="#9CA3AF" stroke-width="28"/>
      <use href="#FT" transform="translate(826 505) rotate(74)" fill="#9CA3AF"/>
      <ellipse cx="308" cy="454" rx="29" ry="41" fill="#9CA3AF" transform="rotate(-84.4 308 454)"/>
    </g>

    <g id="body-start" stroke-linecap="round" stroke-linejoin="round">
      <use href="#TK" transform="translate(372 350) rotate(-72.1)" fill="#E5E7EB" stroke="#1F2937" stroke-width="6"/>
      <path d="M 372,350 L 372,453 L 372,556 M 539,404 L 682,450 L 826,497 M 372,350 L 347,342" fill="none" stroke="#1F2937" stroke-width="40"/>
      <use href="#FT" transform="translate(826 497) rotate(74)" fill="#E5E7EB" stroke="#1F2937" stroke-width="6"/>
      <path d="M 372,350 L 372,453 L 372,556 M 539,404 L 682,450 L 826,497 M 372,350 L 347,342" fill="none" stroke="#E5E7EB" stroke-width="28"/>
      <ellipse cx="311" cy="330" rx="29" ry="41" fill="#E5E7EB" stroke="#1F2937" stroke-width="6" transform="rotate(-72.1 311 330)"/>
    </g>

    <g id="movement-arrows"><path d="M 480 378 L 480 484" fill="none" stroke="#2563EB" stroke-width="6" stroke-linecap="round" stroke-linejoin="round" marker-start="url(#ah)" marker-end="url(#ah)"/></g>

    <g id="safety-cues" fill="none" stroke="#10B981" stroke-width="4" stroke-linecap="round" stroke-dasharray="2 14"><line x1="300" y1="305" x2="852" y2="512"/></g>
  </g>
</svg>
