<svg xmlns="http://www.w3.org/2000/svg" viewBox="0 0 1024 768" role="img" aria-labelledby="dt"><title id="dt">armsout — мясо</title>
  <defs><path id="FT" d="M 8,-6 C 34,-6 50,0 57,9 C 63,13 61,21 51,21 L -8,21 C -18,21 -18,-3 -9,-5 Z"/></defs>
  <g><line x1="318.2" y1="702.0" x2="705.8" y2="702.0" stroke="#1F2937" stroke-width="4" stroke-linecap="round" opacity="0.45"/></g>
  <g transform="translate(512.0 702.1) scale(1.066)" stroke-linecap="round" stroke-linejoin="round">
      <path d="M 0.0,-501.0 L 0.0,-527.0" fill="none" stroke="#1F2937" stroke-width="40"/><path d="M 0.0,-501.0 L 0.0,-527.0" fill="none" stroke="#E5E7EB" stroke-width="28"/>
      <path d="M -36.0,-326.0 L -36.0,-175.0 L -36.0,-24.0" fill="none" stroke="#1F2937" stroke-width="40"/><path d="M -36.0,-326.0 L -36.0,-175.0 L -36.0,-24.0" fill="none" stroke="#E5E7EB" stroke-width="28"/>
      <path d="M 36.0,-326.0 L 36.0,-175.0 L 36.0,-24.0" fill="none" stroke="#1F2937" stroke-width="40"/><path d="M 36.0,-326.0 L 36.0,-175.0 L 36.0,-24.0" fill="none" stroke="#E5E7EB" stroke-width="28"/>
      <path d="M 36.0,-326.0 L 28.8,-404.8 L 44.7,-469.5 L 52.0,-501.0 Q 0.0,-509.0 -52.0,-501.0 L -44.7,-469.5 L -28.8,-404.8 L -36.0,-326.0 Q 0.0,-316.0 36.0,-326.0 Z" fill="#E5E7EB" stroke="#1F2937" stroke-width="6" stroke-linejoin="round"/>
      <path d="M -52.0,-501.0 L 63.9,-506.8 L 153.7,-511.3" fill="none" stroke="#1F2937" stroke-width="40"/><path d="M -52.0,-501.0 L 63.9,-506.8 L 153.7,-511.3" fill="none" stroke="#E5E7EB" stroke-width="28"/>
      <path d="M 52.0,-501.0 L -63.9,-506.8 L -153.7,-511.3" fill="none" stroke="#1F2937" stroke-width="40"/><path d="M 52.0,-501.0 L -63.9,-506.8 L -153.7,-511.3" fill="none" stroke="#E5E7EB" stroke-width="28"/>
      <ellipse cx="-36.0" cy="-14.0" rx="17" ry="12" fill="#E5E7EB" stroke="#1F2937" stroke-width="6"/>
      <ellipse cx="36.0" cy="-14.0" rx="17" ry="12" fill="#E5E7EB" stroke="#1F2937" stroke-width="6"/>
      <ellipse cx="0.0" cy="-565.0" rx="29" ry="41" fill="#E5E7EB" stroke="#1F2937" stroke-width="6" transform="rotate(0.0 0.0 -565.0)"/>
  </g></svg>
