<svg xmlns="http://www.w3.org/2000/svg" viewBox="0 0 1024 768" role="img" aria-labelledby="ct"><title id="ct">armsout — скелет</title>
  <defs><path id="FT" d="M 8,-6 C 34,-6 50,0 57,9 C 63,13 61,21 51,21 L -8,21 C -18,21 -18,-3 -9,-5 Z"/></defs>
  <g><line x1="312.3" y1="702.0" x2="711.7" y2="702.0" stroke="#1F2937" stroke-width="4" stroke-linecap="round" opacity="0.45"/></g>
  <g transform="translate(512.0 723.7) scale(1.104)" stroke-linecap="round" stroke-linejoin="round">
      <line x1="0" y1="-326" x2="0.0" y2="-501.0" stroke="#1F2937" stroke-width="3"/><line x1="0.0" y1="-501.0" x2="0.0" y2="-527.0" stroke="#1F2937" stroke-width="3"/><line x1="0.0" y1="-527.0" x2="0.0" y2="-565.0" stroke="#1F2937" stroke-width="3"/><line x1="0" y1="-326" x2="-36.0" y2="-326.0" stroke="#1F2937" stroke-width="3"/><line x1="0" y1="-326" x2="36.0" y2="-326.0" stroke="#1F2937" stroke-width="3"/><line x1="0.0" y1="-501.0" x2="-52.0" y2="-501.0" stroke="#1F2937" stroke-width="3"/><line x1="0.0" y1="-501.0" x2="52.0" y2="-501.0" stroke="#1F2937" stroke-width="3"/><line x1="-36.0" y1="-326.0" x2="-36.0" y2="-175.0" stroke="#1F2937" stroke-width="3"/><line x1="-36.0" y1="-175.0" x2="-36.0" y2="-24.0" stroke="#1F2937" stroke-width="3"/><line x1="-36.0" y1="-24.0" x2="-36.0" y2="-21.5" stroke="#1F2937" stroke-width="3"/><line x1="36.0" y1="-326.0" x2="36.0" y2="-175.0" stroke="#1F2937" stroke-width="3"/><line x1="36.0" y1="-175.0" x2="36.0" y2="-24.0" stroke="#1F2937" stroke-width="3"/><line x1="36.0" y1="-24.0" x2="36.0" y2="-21.5" stroke="#1F2937" stroke-width="3"/><line x1="-52.0" y1="-501.0" x2="63.9" y2="-506.8" stroke="#1F2937" stroke-width="3"/><line x1="63.9" y1="-506.8" x2="153.7" y2="-511.3" stroke="#1F2937" stroke-width="3"/><line x1="52.0" y1="-501.0" x2="-63.9" y2="-506.8" stroke="#1F2937" stroke-width="3"/><line x1="-63.9" y1="-506.8" x2="-153.7" y2="-511.3" stroke="#1F2937" stroke-width="3"/><circle cx="0" cy="-326" r="6" fill="#2563EB"/><circle cx="0.0" cy="-501.0" r="6" fill="#2563EB"/><circle cx="0.0" cy="-527.0" r="6" fill="#2563EB"/><circle cx="-36.0" cy="-326.0" r="6" fill="#2563EB"/><circle cx="36.0" cy="-326.0" r="6" fill="#2563EB"/><circle cx="-52.0" cy="-501.0" r="6" fill="#2563EB"/><circle cx="52.0" cy="-501.0" r="6" fill="#2563EB"/><circle cx="63.9" cy="-506.8" r="6" fill="#2563EB"/><circle cx="153.7" cy="-511.3" r="6" fill="#2563EB"/><circle cx="-63.9" cy="-506.8" r="6" fill="#2563EB"/><circle cx="-153.7" cy="-511.3" r="6" fill="#2563EB"/><circle cx="-36.0" cy="-175.0" r="6" fill="#2563EB"/><circle cx="-36.0" cy="-24.0" r="6" fill="#2563EB"/><circle cx="36.0" cy="-175.0" r="6" fill="#2563EB"/><circle cx="36.0" cy="-24.0" r="6" fill="#2563EB"/>
      <circle cx="0.0" cy="-565.0" r="32" fill="none" stroke="#2563EB" stroke-width="3"/>
  </g></svg>
