<svg xmlns="http://www.w3.org/2000/svg" viewBox="0 0 1024 768" role="img" aria-labelledby="c03t c03d">
  <title id="c03t">Flutter kicks</title><desc id="c03d">3D-проекция сбоку: ноги прямые, вверх попеременно.</desc>
  <defs><marker id="ah" markerUnits="userSpaceOnUse" markerWidth="26" markerHeight="26" refX="18" refY="13" orient="auto-start-reverse"><path d="M5,3 L21,13 L5,23" fill="none" stroke="#2563EB" stroke-width="5" stroke-linecap="round" stroke-linejoin="round"/></marker><path id="TK" d="M 0,-10 C 20,-10 25,2 25,38 C 25,72 17,86 17,108 C 17,138 23,150 23,168 C 23,182 12,186 0,186 C -12,186 -23,182 -23,168 C -23,150 -17,138 -17,108 C -17,86 -25,72 -25,38 C -25,2 -20,-10 0,-10 Z"/><path id="TKF" d="M 0,-14 C 38,-14 54,-4 54,16 C 54,58 32,86 30,116 C 30,148 42,162 42,176 C 42,190 -42,190 -42,176 C -42,162 -30,148 -30,116 C -30,86 -54,58 -54,16 C -54,-4 -38,-14 0,-14 Z"/><path id="FT" d="M 8,-6 C 34,-6 50,0 57,9 C 63,13 61,21 51,21 L -8,21 C -18,21 -18,-3 -9,-5 Z"/></defs>
  <g id="mat"><line x1="360" y1="553" x2="820" y2="553" stroke="#1F2937" stroke-width="4" stroke-linecap="round" opacity="0.45"/></g>
  <g transform="translate(560 540)" stroke-linecap="round" stroke-linejoin="round">
      <path d="M -175.0,-18.0 L -59.0,-18.0 L -114.6,-88.8" fill="none" stroke="#1F2937" stroke-width="40"/><path d="M -175.0,-18.0 L -59.0,-18.0 L -114.6,-88.8" fill="none" stroke="#E5E7EB" stroke-width="28"/>
      <path d="M 0,-18 L 99.8,-131.4 L 199.5,-244.7" fill="none" stroke="#1F2937" stroke-width="40"/><path d="M 0,-18 L 99.8,-131.4 L 199.5,-244.7" fill="none" stroke="#E5E7EB" stroke-width="28"/>
      <use href="#FT" transform="translate(199.5 -244.7) rotate(-48.7)" fill="#E5E7EB" stroke="#1F2937" stroke-width="6"/>
      <path d="M -175.0,-18.0 L -201.0,-18.0" fill="none" stroke="#1F2937" stroke-width="40"/><path d="M -175.0,-18.0 L -201.0,-18.0" fill="none" stroke="#E5E7EB" stroke-width="28"/>
      <use href="#TK" transform="translate(-175.0 -18.0) rotate(-90.0)" fill="#E5E7EB" stroke="#1F2937" stroke-width="6"/>
      <ellipse cx="-239.0" cy="-18.0" rx="29" ry="41" fill="#E5E7EB" stroke="#1F2937" stroke-width="6" transform="rotate(-90.0 -239.0 -18.0)"/>
      <path d="M 0,-18 L 68.1,-152.8 L 136.3,-287.5" fill="none" stroke="#1F2937" stroke-width="40"/><path d="M 0,-18 L 68.1,-152.8 L 136.3,-287.5" fill="none" stroke="#E5E7EB" stroke-width="28"/>
      <use href="#FT" transform="translate(136.3 -287.5) rotate(-63.2)" fill="#E5E7EB" stroke="#1F2937" stroke-width="6"/>
      <path d="M -175.0,-18.0 L -59.0,-18.0 L -114.6,-88.8" fill="none" stroke="#1F2937" stroke-width="40"/><path d="M -175.0,-18.0 L -59.0,-18.0 L -114.6,-88.8" fill="none" stroke="#E5E7EB" stroke-width="28"/>
  </g>
  <g id="movement-arrows"></g>
  <g id="safety-cues" fill="none" stroke="#10B981" stroke-width="4" stroke-linecap="round" stroke-dasharray="2 14"></g>
</svg>
