<svg xmlns="http://www.w3.org/2000/svg" viewBox="0 0 1024 768" role="img" aria-labelledby="at"><title id="at">squat — скелет</title>
  <defs><path id="FT" d="M 8,-6 C 34,-6 50,0 57,9 C 63,13 61,21 51,21 L -8,21 C -18,21 -18,-3 -9,-5 Z"/></defs>
  <g><line x1="366.3" y1="702.0" x2="657.7" y2="702.0" stroke="#1F2937" stroke-width="4" stroke-linecap="round" opacity="0.45"/></g>
  <g transform="translate(396.3 724.1) scale(1.185)" stroke-linecap="round" stroke-linejoin="round">
      <line x1="0" y1="-300" x2="55.9" y2="-465.8" stroke="#1F2937" stroke-width="3"/><line x1="55.9" y1="-465.8" x2="64.2" y2="-490.5" stroke="#1F2937" stroke-width="3"/><line x1="64.2" y1="-490.5" x2="76.3" y2="-526.5" stroke="#1F2937" stroke-width="3"/><line x1="0" y1="-300" x2="0.0" y2="-300.0" stroke="#1F2937" stroke-width="3"/><line x1="0" y1="-300" x2="0.0" y2="-300.0" stroke="#1F2937" stroke-width="3"/><line x1="55.9" y1="-465.8" x2="55.9" y2="-465.8" stroke="#1F2937" stroke-width="3"/><line x1="55.9" y1="-465.8" x2="55.9" y2="-465.8" stroke="#1F2937" stroke-width="3"/><line x1="0.0" y1="-300.0" x2="82.7" y2="-173.7" stroke="#1F2937" stroke-width="3"/><line x1="82.7" y1="-173.7" x2="75.2" y2="-22.9" stroke="#1F2937" stroke-width="3"/><line x1="75.2" y1="-22.9" x2="138.1" y2="-20.3" stroke="#1F2937" stroke-width="3"/><line x1="0.0" y1="-300.0" x2="82.7" y2="-173.7" stroke="#1F2937" stroke-width="3"/><line x1="82.7" y1="-173.7" x2="75.2" y2="-22.9" stroke="#1F2937" stroke-width="3"/><line x1="75.2" y1="-22.9" x2="138.1" y2="-20.3" stroke="#1F2937" stroke-width="3"/><line x1="55.9" y1="-465.8" x2="105.3" y2="-360.9" stroke="#1F2937" stroke-width="3"/><line x1="105.3" y1="-360.9" x2="195.1" y2="-356.2" stroke="#1F2937" stroke-width="3"/><line x1="55.9" y1="-465.8" x2="105.3" y2="-360.9" stroke="#1F2937" stroke-width="3"/><line x1="105.3" y1="-360.9" x2="195.1" y2="-356.2" stroke="#1F2937" stroke-width="3"/><circle cx="0" cy="-300" r="6" fill="#2563EB"/><circle cx="55.9" cy="-465.8" r="6" fill="#2563EB"/><circle cx="64.2" cy="-490.5" r="6" fill="#2563EB"/><circle cx="0.0" cy="-300.0" r="6" fill="#2563EB"/><circle cx="0.0" cy="-300.0" r="6" fill="#2563EB"/><circle cx="55.9" cy="-465.8" r="6" fill="#2563EB"/><circle cx="55.9" cy="-465.8" r="6" fill="#2563EB"/><circle cx="105.3" cy="-360.9" r="6" fill="#2563EB"/><circle cx="195.1" cy="-356.2" r="6" fill="#2563EB"/><circle cx="105.3" cy="-360.9" r="6" fill="#2563EB"/><circle cx="195.1" cy="-356.2" r="6" fill="#2563EB"/><circle cx="82.7" cy="-173.7" r="6" fill="#2563EB"/><circle cx="75.2" cy="-22.9" r="6" fill="#2563EB"/><circle cx="82.7" cy="-173.7" r="6" fill="#2563EB"/><circle cx="75.2" cy="-22.9" r="6" fill="#2563EB"/>
      <circle cx="76.3" cy="-526.5" r="32" fill="none" stroke="#2563EB" stroke-width="3"/>
  </g></svg>
