<svg xmlns="http://www.w3.org/2000/svg" viewBox="0 0 1024 768" role="img" aria-labelledby="bt"><title id="bt">squat — мясо</title>
  <defs><path id="FT" d="M 8,-6 C 34,-6 50,0 57,9 C 63,13 61,21 51,21 L -8,21 C -18,21 -18,-3 -9,-5 Z"/></defs>
  <g><line x1="358.2" y1="702.0" x2="665.8" y2="702.0" stroke="#1F2937" stroke-width="4" stroke-linecap="round" opacity="0.45"/></g>
  <g transform="translate(413.1 701.0) scale(1.141)" stroke-linecap="round" stroke-linejoin="round">
      <path d="M 55.9,-465.8 L 105.3,-360.9 L 195.1,-356.2" fill="none" stroke="#1F2937" stroke-width="40"/><path d="M 55.9,-465.8 L 105.3,-360.9 L 195.1,-356.2" fill="none" stroke="#E5E7EB" stroke-width="28"/>
      <path d="M 0.0,-300.0 L 82.7,-173.7 L 75.2,-22.9" fill="none" stroke="#1F2937" stroke-width="40"/><path d="M 0.0,-300.0 L 82.7,-173.7 L 75.2,-22.9" fill="none" stroke="#E5E7EB" stroke-width="28"/>
      <use href="#FT" transform="translate(75.2 -22.9) rotate(2.3)" fill="#E5E7EB" stroke="#1F2937" stroke-width="6"/>
      <path d="M 55.9,-465.8 L 64.2,-490.5" fill="none" stroke="#1F2937" stroke-width="40"/><path d="M 55.9,-465.8 L 64.2,-490.5" fill="none" stroke="#E5E7EB" stroke-width="28"/>
      <path d="M 21.8,-292.7 L 42.1,-368.9 L 69.5,-428.0 L 80.5,-457.5 Q 58.4,-473.4 31.2,-474.1 L 22.2,-444.0 L 8.1,-380.4 L -21.8,-307.3 Q -3.2,-290.5 21.8,-292.7 Z" fill="#E5E7EB" stroke="#1F2937" stroke-width="6" stroke-linejoin="round"/>
      <ellipse cx="76.3" cy="-526.5" rx="29" ry="41" fill="#E5E7EB" stroke="#1F2937" stroke-width="6" transform="rotate(18.6 76.3 -526.5)"/>
      <path d="M 0.0,-300.0 L 82.7,-173.7 L 75.2,-22.9" fill="none" stroke="#1F2937" stroke-width="40"/><path d="M 0.0,-300.0 L 82.7,-173.7 L 75.2,-22.9" fill="none" stroke="#E5E7EB" stroke-width="28"/>
      <use href="#FT" transform="translate(75.2 -22.9) rotate(2.3)" fill="#E5E7EB" stroke="#1F2937" stroke-width="6"/>
      <path d="M 55.9,-465.8 L 105.3,-360.9 L 195.1,-356.2" fill="none" stroke="#1F2937" stroke-width="40"/><path d="M 55.9,-465.8 L 105.3,-360.9 L 195.1,-356.2" fill="none" stroke="#E5E7EB" stroke-width="28"/>
  </g></svg>
